<svg width="14" height="13" viewBox="0 0 14 13" fill="none" xmlns="http://www.w3.org/2000/svg">
<path fill-rule="evenodd" clip-rule="evenodd" d="M8.5776 0.0989474C8.93724 -0.106563 9.39538 0.0183873 9.60089 0.378017L11.6772 4.01169H12.0757C12.2987 4.008 12.5199 4.05412 12.7229 4.14672C12.9276 4.2401 13.1087 4.37834 13.2528 4.5512C13.3968 4.72407 13.5002 4.92713 13.5551 5.14534C13.6099 5.36313 13.6151 5.59044 13.5704 5.81051L13.5701 5.81179L12.4705 11.3097L12.4701 11.3115C12.4 11.6555 12.2115 11.9639 11.9374 12.1832C11.6648 12.4013 11.3247 12.5174 10.9757 12.5116H2.62475C2.27578 12.5174 1.93566 12.4013 1.66304 12.1832C1.38896 11.9639 1.20045 11.6555 1.13033 11.3115L1.12995 11.3097L0.0303687 5.81179L0.0301407 5.81067C-0.0146633 5.59055 -0.00946026 5.36318 0.0453727 5.14534C0.100299 4.92713 0.203615 4.72407 0.347668 4.5512C0.491722 4.37834 0.672821 4.2401 0.877552 4.14672C1.08059 4.05412 1.30171 4.008 1.52479 4.01169H1.92321L3.99959 0.378017C4.2051 0.0183873 4.66324 -0.106563 5.02288 0.0989474C5.38252 0.304447 5.50746 0.762587 5.30196 1.12223L3.65084 4.01169H9.94963L8.29852 1.12223C8.09302 0.762587 8.21796 0.304447 8.5776 0.0989474Z" fill="#EF3E1C"/>
</svg>
